<svg width="44" height="48" viewBox="0 0 44 48" fill="none" xmlns="http://www.w3.org/2000/svg">
<path fill-rule="evenodd" clip-rule="evenodd" d="M16.1653 4.60599C16.7633 2.03399 19.1012 0 22.0011 0C24.9749 0 27.2788 2.11399 27.8468 4.63199C31.2487 5.47599 34.0805 7.24398 35.9585 10.252C37.4544 12.65 38.0664 15.038 39.0643 22.4299C41.0682 22.9599 42.3322 24.1599 42.8882 25.9499C43.4141 27.6419 43.9201 33.1319 43.9961 36.0079C44.0661 38.9539 43.2061 41.2879 40.2343 42.2699L40.2143 42.2759C39.2183 48.4319 33.1606 47.9719 31.1607 47.9939C28.2728 48.0119 25.7769 47.9859 22.0091 47.9719C19.6132 47.9799 11.3595 47.9979 10.4016 47.9399C6.43372 47.6239 4.34181 45.4839 3.80784 42.2819C1.51993 41.5559 0 39.6819 0 36.6719C0 34.1319 0.409982 29.4659 0.963959 26.5599C1.42994 24.3939 2.73588 23.0099 4.95179 22.4259C5.89175 15.13 6.55972 12.048 8.68763 9.24997C10.5895 6.74798 13.1774 5.33799 16.1653 4.60599ZM10.5115 14.252C9.63959 16.734 8.83362 23.5839 8.52963 26.0819C7.86766 26.1219 7.18969 26.1459 6.52172 26.2059C5.14578 26.3519 4.99179 26.7159 4.83179 27.6599C4.28382 30.8639 4.00583 34.5779 4.00183 36.7899C4.02183 37.9759 4.40981 38.3839 5.39177 38.5639C5.70375 38.6179 7.24969 38.7439 7.59167 38.7739C7.75767 43.5959 7.84766 43.9499 12.8894 43.9959C15.5593 44.0119 22.0091 43.9739 22.0091 43.9739C27.2828 43.9939 28.9888 44.0159 31.7326 43.9899C36.2944 43.9459 36.2784 43.1499 36.4264 38.7759C37.0904 38.7179 37.7544 38.6699 38.4163 38.5939C40.0883 38.3579 40.0403 37.5099 39.9843 35.8139C39.9043 33.2599 39.6163 30.1999 39.1343 27.4239C38.9983 26.7419 38.7783 26.4519 37.9964 26.2839C37.4484 26.1599 36.0564 26.1139 35.4925 26.0799C35.2445 24.0799 34.3965 16.922 33.5106 14.376C31.7566 9.32998 27.3428 7.99598 21.9571 7.99598C16.6573 7.99598 12.2715 9.25198 10.5115 14.252ZM34.0025 35.9779C33.9785 39.8239 32.2006 41.8519 28.2268 41.9739C24.081 42.0119 19.9391 42.0159 15.7933 41.9739C12.0015 41.8519 10.0856 39.6459 10.0016 36.1179V27.9819H34.0025V35.9779ZM20.0031 29.9819H12.0035C12.0035 32.0539 11.9575 34.1239 12.0055 36.1939C12.0955 38.8299 13.4274 39.8939 15.8353 39.9739C19.9531 40.0159 24.071 40.0119 28.1868 39.9739C30.9527 39.8879 31.9766 38.8439 32.0046 35.9719V29.9819H24.003V35.9779C24.003 37.0799 23.105 37.9779 22.0031 37.9779C20.8991 37.9779 20.0031 37.0799 20.0031 35.9779V29.9819ZM20.8951 13.59C17.0073 13.888 14.9894 15.136 14.4694 24.0059C14.3454 25.2699 12.5475 25.2639 12.4695 23.9679C12.4955 22.5639 12.7755 20.0779 13.1714 18.3599C13.8894 15.276 15.2373 12.876 18.2572 11.99C20.2051 11.418 23.819 11.42 25.7549 11.99C28.6648 12.842 30.0207 15.1 30.7467 18.0639C31.2347 20.0639 31.5306 23.3759 31.4786 24.0959C31.3107 25.2599 29.6887 25.2819 29.4927 24.1159C28.8808 17.924 28.8208 13.864 22.983 13.582L24.335 18.2519C24.6669 19.7519 23.525 21.1619 22.0031 21.1619C20.5011 21.1619 19.3652 19.7859 19.6612 18.302L20.8951 13.59ZM22.0031 17.578C22.663 17.578 23.199 18.114 23.199 18.7719C23.199 19.4319 22.663 19.9679 22.0031 19.9679C21.3431 19.9679 20.8091 19.4319 20.8091 18.7719C20.8091 18.114 21.3431 17.578 22.0031 17.578ZM25.5849 4.21199C24.9289 2.89399 23.595 1.99799 21.9911 1.99799C20.3631 2.01799 19.0712 2.91799 18.4252 4.20199C20.5891 3.93599 23.321 3.91999 25.5849 4.21199Z" fill="#6B5CF6"/>
</svg>
