<svg width="40" height="48" viewBox="0 0 40 48" fill="none" xmlns="http://www.w3.org/2000/svg">
<path fill-rule="evenodd" clip-rule="evenodd" d="M40 0V28.772C40 33.554 26.704 48 20.378 48H0V0H40ZM18.724 44C27.036 44 24 32 24 32C24 32 36 35.3 36 27.086V4H4V44H18.724ZM20 36V38H10V36H20ZM10 32H20V34H10V32ZM10 28H30V30H10V28ZM10 24H30V26H10V24ZM17.382 17.652L13.272 17.654L12.492 19.998L10 20L14.226 8.622L16.398 8.62L20.664 19.992L18.172 19.994L17.382 17.652ZM26.128 13.622L28.948 13.62L28.95 15.658L26.13 15.66L26.132 18.848L23.984 18.85L23.982 15.662L21.154 15.664L21.152 13.626L23.98 13.624L23.978 10.568H26.126L26.128 13.622ZM13.904 15.756L16.748 15.754L15.314 11.496L13.904 15.756Z" fill="#50C4EE"/>
</svg>
