<svg width="81" height="29" viewBox="0 0 81 29" fill="none" xmlns="http://www.w3.org/2000/svg">
<path d="M0.52 28V-1.90735e-06H22.04V5.04H6.32V11.44H16.68V16.32H6.32V22.96H22.2V28H0.52ZM26.3013 28V-1.90735e-06H37.0613C39.1413 -1.90735e-06 41.0879 0.359998 42.9013 1.08C44.7146 1.8 46.2746 2.78667 47.5813 4.04C48.9146 5.29333 49.9546 6.78667 50.7013 8.52C51.4746 10.2533 51.8613 12.1067 51.8613 14.08C51.8613 16.0267 51.4746 17.8533 50.7013 19.56C49.9546 21.2667 48.9146 22.7467 47.5813 24C46.2746 25.2267 44.7146 26.2 42.9013 26.92C41.0879 27.64 39.1413 28 37.0613 28H26.3013ZM37.0213 5.16H32.1013V22.84H37.0213C38.2479 22.84 39.3946 22.6133 40.4613 22.16C41.5546 21.7067 42.5013 21.0933 43.3013 20.32C44.1013 19.52 44.7279 18.5867 45.1813 17.52C45.6346 16.4533 45.8613 15.3067 45.8613 14.08C45.8613 12.8267 45.6346 11.6533 45.1813 10.56C44.7279 9.46667 44.1013 8.52 43.3013 7.72C42.5013 6.92 41.5546 6.29333 40.4613 5.84C39.3946 5.38667 38.2479 5.16 37.0213 5.16ZM80.1925 15.88C80.1925 17.7733 79.8992 19.5067 79.3125 21.08C78.7258 22.6267 77.8858 23.9467 76.7925 25.04C75.7258 26.1067 74.4192 26.9333 72.8725 27.52C71.3525 28.1067 69.6592 28.4 67.7925 28.4C65.8992 28.4 64.1792 28.1067 62.6325 27.52C61.1125 26.9333 59.8192 26.1067 58.7525 25.04C57.6858 23.9467 56.8592 22.6267 56.2725 21.08C55.6858 19.5333 55.3925 17.8 55.3925 15.88V-1.90735e-06H61.1925V15.88C61.1925 18.04 61.7925 19.7733 62.9925 21.08C64.2192 22.3867 65.8325 23.04 67.8325 23.04C69.8325 23.04 71.4192 22.3867 72.5925 21.08C73.7925 19.7733 74.3925 18.04 74.3925 15.88V-1.90735e-06H80.1925V15.88Z" fill="white"/>
</svg>
